<svg width="53" height="55" viewBox="0 0 53 55" fill="none" xmlns="http://www.w3.org/2000/svg">
<path d="M40.5346 23.422C40.8489 23.9293 41.4146 24.2463 42.0431 24.2463C42.3574 24.2463 42.6716 24.1829 42.9859 23.9927L51.5968 18.7931C52.4767 18.2858 52.7281 17.1445 52.2253 16.3201C51.7225 15.4324 50.5911 15.1788 49.774 15.686L42.6088 19.9979L39.1519 13.2131C38.2091 12.2619 37.1406 11.3108 36.0721 10.4865L25.827 5.28687C25.1356 4.96982 24.3814 5.03323 23.8157 5.54051L15.2677 13.3399C14.5134 14.0374 14.4506 15.1788 15.142 15.8763C15.8334 16.6372 16.9647 16.7006 17.6561 16.0031L25.387 9.02804L30.7295 11.7546L21.553 26.0852L0.622904 51.0686C-0.194187 52.0197 -0.131334 53.5415 0.874316 54.3659C1.81711 55.1902 3.32559 55.1268 4.14268 54.1122L24.4442 30.4605L33.1808 32.4896L27.2098 41.9376C26.5812 43.079 26.9584 44.474 28.0897 45.1081C29.0954 45.6788 30.4153 45.4251 31.1067 44.4106L38.7747 32.1725C39.2147 31.5384 39.2776 30.7141 39.0261 30.0166C38.7119 29.3191 38.1462 28.8118 37.392 28.685L30.6667 27.0998L36.7634 17.4615L40.5346 23.422Z" fill="#020203"/>
<path d="M41.9174 10.423C44.5556 10.423 46.6942 8.26545 46.6942 5.60392C46.6942 2.94239 44.5556 0.78479 41.9174 0.78479C39.2792 0.78479 37.1406 2.94239 37.1406 5.60392C37.1406 8.26545 39.2792 10.423 41.9174 10.423Z" fill="#020203"/>
</svg>
